<svg width="32" height="32" viewBox="0 0 32 32" fill="none" xmlns="http://www.w3.org/2000/svg">
  <rect width="32" height="32" rx="6" fill="#8B5CF6"/>
  <path d="M16 8C18.2091 8 20 9.79086 20 12C20 14.2091 18.2091 16 16 16C13.7909 16 12 14.2091 12 12C12 9.79086 13.7909 8 16 8Z" fill="white"/>
  <path d="M24 12H22C22 10.8954 21.1046 10 20 10H12C10.8954 10 10 10.8954 10 12H8C6.89543 12 6 12.8954 6 14V16C6 17.1046 6.89543 18 8 18H10C10 19.1046 10.8954 20 12 20H20C21.1046 20 22 19.1046 22 18H24C25.1046 18 26 17.1046 26 16V14C26 12.8954 25.1046 12 24 12Z" fill="white"/>
  <path d="M14 22C14 23.1046 14.8954 24 16 24C17.1046 24 18 23.1046 18 22H14Z" fill="white"/>
</svg>
